<svg width="448" height="450" viewBox="0 0 448 450" fill="none" xmlns="http://www.w3.org/2000/svg">
<ellipse cx="224" cy="224.82" rx="224" ry="224.82" fill="#EDD77E"/>
<mask id="mask0_220_3186" style="mask-type:alpha" maskUnits="userSpaceOnUse" x="0" y="0" width="448" height="450">
<ellipse cx="224" cy="224.82" rx="224" ry="224.82" fill="#EDD77E"/>
</mask>
<g mask="url(#mask0_220_3186)">
<path d="M324.776 434.064C233.071 464.989 165.516 443.881 143.201 429.462C146.78 355.329 175.759 334.731 207.853 329.019C220.984 326.682 227.301 328.216 239.949 328.216C273.351 328.216 314.014 400.055 324.776 434.064Z" fill="#A93A3A"/>
<path d="M239.949 328.216C273.351 328.216 314.014 400.055 324.776 434.064C233.071 464.989 165.516 443.881 143.201 429.462C146.78 355.329 175.759 334.731 207.853 329.019M239.949 328.216C238.259 328.216 241.639 328.216 239.949 328.216ZM239.949 328.216C238.726 344.312 240.408 378.93 225.735 390.343M239.949 328.216C227.301 328.216 220.984 326.682 207.853 329.019M225.735 390.343C222.22 393.638 208.77 376.997 207.853 329.019M225.735 390.343V440.965" stroke="#7C1717" stroke-width="6"/>
<ellipse cx="233.529" cy="404.609" rx="4.12669" ry="4.1418" fill="#7C1717"/>
<path d="M119.357 160.752L121.558 184.712C122.774 197.85 128.994 197.935 132.317 207.136C136.848 219.68 144.162 231.989 148.64 238.483C149.255 239.375 150.485 238.751 150.225 237.7C144.906 216.197 147.968 196.433 147.968 177.8C147.968 174.048 149.263 172.349 150.383 171.373C151.225 170.64 153.994 168.61 155.089 168.829C165.329 170.879 169.112 170.029 170.913 167.9C171.638 167.043 173.13 167.259 173.13 168.382V188.274C173.13 188.827 173.579 189.278 174.13 189.256C179.127 189.061 182.431 187.084 190.251 174.602C190.281 174.555 190.308 174.502 190.329 174.451C195.942 160.834 192.27 154.846 200.692 147.597C200.87 147.443 201.103 147.357 201.338 147.357H202.559C202.6 147.357 202.641 147.362 202.682 147.372C210.395 149.225 217.777 143.281 217.611 135.35L217.174 114.452C217.151 113.367 218.632 113.028 219.083 114.016L232.868 144.152C232.996 144.432 233.258 144.638 233.555 144.72C250.042 149.224 240.953 176.803 265.335 174.657C265.952 174.603 266.369 173.953 266.192 173.359C259.322 150.364 264.603 162.791 267.112 162.811C267.723 162.816 268.396 162.353 268.933 162.643C278.756 167.953 269.373 159.539 277.089 178.19C281.378 188.56 292.157 190.638 297.22 189.544C297.759 189.427 298.335 189.708 298.527 190.226C303.18 202.771 303.373 193.927 302.438 213.236C302.404 213.924 303.057 214.454 303.693 214.191C321.108 206.983 332.861 161.826 329.789 148.277C329.765 148.171 329.758 148.076 329.768 147.967C332.214 119.062 283.548 48.1003 217.342 72.1858C217.169 72.2486 216.978 72.2654 216.797 72.2297L200.787 69.0588C162.933 58.9219 121.558 99.9303 119.357 160.752Z" fill="#715439"/>
<path d="M280.14 300.989C314.602 321.889 335.618 278.105 300.487 270.112C299.518 269.891 297.565 271.736 297.279 272.687C295.479 278.696 286.938 291.116 279.882 299.488C279.489 299.953 279.619 300.674 280.14 300.989Z" fill="#715439"/>
<path d="M119.357 160.752L121.558 184.712C122.774 197.85 128.994 197.935 132.317 207.136C136.848 219.68 144.162 231.989 148.64 238.483C149.255 239.375 150.485 238.751 150.225 237.7C144.906 216.197 147.968 196.433 147.968 177.8C147.968 174.048 149.263 172.349 150.383 171.373C151.225 170.64 153.994 168.61 155.089 168.829C165.329 170.879 169.112 170.029 170.913 167.9C171.638 167.043 173.13 167.259 173.13 168.382V188.274C173.13 188.827 173.579 189.278 174.13 189.256C179.127 189.061 182.431 187.084 190.251 174.602C190.281 174.555 190.308 174.502 190.329 174.451C195.942 160.834 192.27 154.846 200.692 147.597C200.87 147.443 201.103 147.357 201.338 147.357H202.559C202.6 147.357 202.641 147.362 202.682 147.372C210.395 149.225 217.777 143.281 217.611 135.35L217.174 114.452C217.151 113.367 218.632 113.028 219.083 114.016L232.868 144.152C232.996 144.432 233.258 144.638 233.555 144.72C250.042 149.224 240.953 176.803 265.335 174.657C265.952 174.603 266.369 173.953 266.192 173.359C259.322 150.364 264.603 162.791 267.112 162.811C267.723 162.816 268.396 162.353 268.933 162.643C278.756 167.953 269.373 159.539 277.089 178.19C281.378 188.56 292.157 190.638 297.22 189.544C297.759 189.427 298.335 189.708 298.527 190.226C303.18 202.771 303.373 193.927 302.438 213.236C302.404 213.924 303.057 214.454 303.693 214.191C321.108 206.983 332.861 161.826 329.789 148.277C329.765 148.171 329.758 148.076 329.768 147.967C332.214 119.062 283.548 48.1003 217.342 72.1858C217.169 72.2486 216.978 72.2654 216.797 72.2297L200.787 69.0588C162.933 58.9219 121.558 99.9303 119.357 160.752Z" stroke="#614225" stroke-width="4"/>
<path d="M280.14 300.989C314.602 321.889 335.618 278.105 300.487 270.112C299.518 269.891 297.565 271.736 297.279 272.687C295.479 278.696 286.938 291.116 279.882 299.488C279.489 299.953 279.619 300.674 280.14 300.989Z" stroke="#614225" stroke-width="4"/>
<path d="M258.232 111.462C259.65 118.287 263.995 164.25 292.993 155.057C293.643 154.851 294.358 154.68 295.019 154.848C305.044 157.402 305.705 197.685 306.376 215.007C308.805 215.007 318.583 212.109 325.185 219.269C330.443 224.972 330.667 234.165 326.806 240.893C323.405 246.82 317.031 250.126 305.001 242.619C302.449 259.694 302.659 271.622 293.919 285.749C292.513 288.02 290.802 290.103 288.865 291.942C271.728 308.215 252.988 310.456 238.057 313.029V331.898C232.096 342.482 220.087 336.5 215.131 331.898V313.029C178.908 311.189 166.527 292.32 166.527 292.32C166.527 292.32 154.147 276.213 147.269 252.743C136.264 255.044 123.919 257.253 120.675 231.114C117.431 204.975 134.74 218.228 143.627 224.211C141.316 206.706 144.066 180.729 143.665 166.498C143.638 165.536 144.281 164.683 145.218 164.459C152.756 162.662 156.038 161.828 162.859 157.022C171.571 148.738 181.259 138.154 185.385 129.87C186.786 129.343 187.82 128.492 188.593 127.44L190.994 117.43C191.251 116.359 191.212 116.311 191.118 117.407C190.831 120.721 190.571 124.744 188.593 127.44L186.244 137.233L181.2 148.738L174.781 154.721C189.199 159.139 200.153 130.023 205.56 122.047L211.921 109.161L217.482 103.178L228.028 96.2754L233.072 120.666L245.393 139.994C250.954 147.358 267.969 157.763 269.753 156.101C266.544 151.499 250.98 121.717 258.232 111.462Z" fill="#EBB888"/>
<path d="M306.376 215.007C305.705 197.685 305.044 157.402 295.019 154.848C294.358 154.68 293.643 154.851 292.993 155.057C263.995 164.25 259.65 118.287 258.232 111.462C250.98 121.717 266.544 151.499 269.753 156.101C267.969 157.763 250.954 147.358 245.393 139.994L233.072 120.666L228.028 96.2754L217.482 103.178L211.921 109.161L205.56 122.047C200.153 130.023 189.199 159.139 174.781 154.721L181.2 148.738L186.244 137.233L190.994 117.43C191.251 116.359 191.212 116.311 191.118 117.407C190.719 122.014 190.373 127.993 185.385 129.87C181.259 138.154 171.571 148.738 162.859 157.022C156.038 161.828 152.756 162.662 145.218 164.459C144.281 164.683 143.638 165.536 143.665 166.498C144.066 180.729 141.316 206.706 143.627 224.211M306.376 215.007C308.805 215.007 318.583 212.109 325.185 219.269C330.443 224.972 330.667 234.165 326.806 240.893C323.405 246.82 317.031 250.126 305.001 242.619M306.376 215.007C306.78 225.414 305.545 234.328 305.001 242.619M305.001 242.619C302.449 259.694 302.659 271.622 293.919 285.749C292.513 288.02 290.802 290.103 288.865 291.942C271.728 308.215 252.988 310.456 238.057 313.029M143.627 224.211C134.74 218.228 117.431 204.975 120.675 231.114C123.919 257.253 136.264 255.044 147.269 252.743M143.627 224.211C144.824 233.276 145.602 244.537 147.269 252.743M147.269 252.743C154.147 276.213 166.527 292.32 166.527 292.32C166.527 292.32 178.908 311.189 215.131 313.029M215.131 313.029C215.131 321.313 215.131 323.154 215.131 331.898C220.087 336.5 232.096 342.482 238.057 331.898V313.029M215.131 313.029C223.419 313.888 230.721 314.294 238.057 313.029" stroke="#775B41" stroke-width="4"/>
<path d="M149.104 258.266C151.855 265.629 159.191 288.639 176.615 301.524" stroke="#EBB888" stroke-width="4.5"/>
<path d="M293.537 286.338C296.288 282.196 301.332 271.611 302.708 260.106" stroke="#EBB888" stroke-width="4.2"/>
<path d="M208.311 71.4243C216.564 72.8049 218.398 73.2651 225.276 70.5039" stroke="#715439" stroke-width="6"/>
<path d="M205.9 284.952L209.884 285.198C226.759 286.243 243.639 282.844 258.845 275.339L260.805 274.372" stroke="#4C0B0B" stroke-width="4" stroke-linecap="round"/>
<path d="M256.288 203.306C256.288 210.33 254.473 211.784 252.233 211.784C249.993 211.784 246.826 210.33 246.826 203.306C246.826 196.282 249.993 194.297 252.233 194.297C254.473 194.297 256.288 196.282 256.288 203.306Z" fill="#091220"/>
<path d="M189.81 205.802C190.711 209.944 185.991 211.785 183.502 211.785C181.014 211.785 180.799 210.123 180.799 205.802C180.799 201.482 181.915 197.059 184.403 197.059C186.892 197.059 189.81 201.482 189.81 205.802Z" fill="black"/>
<path d="M234.762 162.747C235.863 159.912 237.995 157.727 240.225 156.184C243.111 154.186 246.804 154.188 250.312 154.287C255.527 154.435 261.283 154.088 265.167 156.101C269.432 158.311 272.106 163.572 274.265 167.492C274.717 168.312 273.444 169.701 272.623 169.249L266.564 165.919C261.679 163.234 255.777 163.162 250.828 165.726L248.597 166.881C245.935 168.261 242.957 168.917 239.961 168.785C236.567 168.635 233.531 165.913 234.762 162.747Z" fill="#715439" stroke="#614225" stroke-width="4"/>
<path d="M180.597 156.579C172.363 155.911 157.295 164.465 147.163 173.135C146.367 173.816 147.081 175.129 148.11 174.929C153.767 173.834 159.575 173.624 166.972 171.376C177.388 168.209 174.193 171.887 185.892 169.869C187.241 169.636 189.582 159.188 180.781 156.613C180.721 156.596 180.659 156.584 180.597 156.579Z" fill="#715439" stroke="#614225" stroke-width="3"/>
<path d="M208.311 248.638V248.638C212.813 243.651 220.683 243.845 225.04 249.05L226.441 250.725" stroke="#775B41" stroke-width="5" stroke-linecap="round"/>
<ellipse cx="233.529" cy="424.858" rx="4.12669" ry="4.1418" fill="#7C1717"/>
</g>
</svg>
