<svg width="448" height="450" viewBox="0 0 448 450" fill="none" xmlns="http://www.w3.org/2000/svg">
<ellipse cx="224" cy="225" rx="224" ry="225" fill="#F58A5C"/>
<mask id="mask0_220_3190" style="mask-type:alpha" maskUnits="userSpaceOnUse" x="13" y="26" width="424" height="424">
<ellipse cx="224.817" cy="238.091" rx="211.737" ry="211.909" fill="#F58A5C"/>
</mask>
<g mask="url(#mask0_220_3190)">
<path d="M257.252 133.734C264.278 161.86 280.667 171.191 291.516 171.956C295.441 172.233 299.933 174.518 300.572 178.4C304.055 199.571 302.728 218.431 303.376 234.795C308.936 228.028 320.475 220.925 328.232 237.093C331.662 244.242 332.238 252.93 328.14 259.719C323.898 266.744 316.064 271.476 303.054 263.521C302.208 276.146 300.492 286.316 298.574 293.864C296.673 301.349 292.004 307.768 285.717 312.253C272.264 321.852 258.397 327.091 245.004 329.353C241.239 330.085 243.435 346.674 245.004 352.994C243.874 364.672 222.889 361.47 217.713 356.761C217.713 347.814 219.595 338.572 217.713 330.183C197.034 328.083 179.514 320.305 169.295 313.437C162.287 308.728 154.416 297.505 149.811 275.294C141.86 282.514 125.113 290.268 121.725 263.521C118.338 236.773 136.052 242.33 145.333 248.452C142.92 230.545 141.393 212.24 140.635 198.317C140.582 197.352 141.232 196.495 142.167 196.246C165.565 190.025 185.569 168.953 192.775 158.979L188.07 170.752C198.54 173.895 209.01 167.506 216.316 160.576L223.83 151.915C222.11 154.402 219.517 157.541 216.316 160.576C246.43 159.446 256.154 142.211 257.252 133.734Z" fill="#EBB888"/>
<path d="M303.376 234.795C302.728 218.431 304.055 199.571 300.572 178.4C299.933 174.518 295.441 172.233 291.516 171.956C280.667 171.191 264.278 161.86 257.252 133.734C256.154 142.211 246.43 159.446 216.316 160.576L223.83 151.915C218.183 160.078 203.127 175.272 188.07 170.752L192.775 158.979C185.569 168.953 165.565 190.025 142.167 196.246C141.232 196.495 140.582 197.352 140.635 198.317C141.393 212.24 142.92 230.545 145.333 248.452M303.376 234.795C308.936 228.028 320.475 220.925 328.232 237.093C331.662 244.242 332.238 252.93 328.14 259.719C323.898 266.744 316.064 271.476 303.054 263.521M303.376 234.795C303.797 245.445 303.622 255.037 303.054 263.521M303.054 263.521C302.208 276.146 300.492 286.316 298.574 293.864C296.673 301.349 292.004 307.768 285.717 312.253C272.264 321.852 258.397 327.091 245.004 329.353M145.333 248.452C136.052 242.33 118.338 236.773 121.725 263.521C125.113 290.268 141.86 282.514 149.811 275.294M145.333 248.452C146.582 257.727 148.07 266.896 149.811 275.294M149.811 275.294C154.416 297.505 162.287 308.728 169.295 313.437C179.514 320.305 197.034 328.083 217.713 330.183M217.713 330.183C219.595 338.572 217.713 347.814 217.713 356.761C222.889 361.47 243.874 364.672 245.004 352.994C243.435 346.674 241.239 330.085 245.004 329.353M217.713 330.183C226.368 331.062 235.568 330.947 245.004 329.353" stroke="#775B41" stroke-width="4"/>
<path d="M205.409 297.892L211.173 298.242C227.756 299.247 244.319 295.977 259.277 288.744L262.746 287.066" stroke="#4C0B0B" stroke-width="4" stroke-linecap="round"/>
<path d="M117.831 182.981L126.533 197.649C126.609 197.776 126.655 197.92 126.669 198.067C127.786 209.867 130.327 219.924 133.332 228.202C137.206 238.879 141.851 246.598 145.202 251.283C145.832 252.164 147.117 251.501 146.855 250.45C142.039 231.109 143.236 210.863 145.603 199.759C145.699 199.311 146.097 198.998 146.554 198.978C174.623 197.755 187.851 171.061 191.581 160.64L187.732 173.481C187.539 174.122 188.014 174.766 188.683 174.719C199.568 173.962 219.101 164.457 224.518 154.519L219.75 163.267C219.371 163.962 219.926 164.797 220.714 164.719C249.645 161.854 256.35 143.658 256.043 134.74C262.4 174.409 281.51 176.159 293.447 172.026C293.605 171.971 293.771 171.951 293.931 171.997C300.673 173.941 300.733 211.024 299.866 230.823C299.836 231.511 300.494 232.013 301.137 231.769C316.537 225.925 320.55 201.141 317.714 189.031C317.693 188.938 317.684 188.844 317.689 188.749C320.638 125.956 284.731 109.311 266.395 108.84L256.182 101.872C256.09 101.809 255.983 101.761 255.875 101.731C139.557 70.2627 115.294 142.326 117.694 182.538C117.703 182.696 117.75 182.844 117.831 182.981Z" fill="#715439"/>
<path d="M266.395 108.84L256.182 101.872C256.09 101.809 255.983 101.761 255.875 101.731C139.557 70.2627 115.294 142.326 117.694 182.538C117.703 182.696 117.75 182.844 117.831 182.981L126.533 197.649C126.609 197.776 126.655 197.92 126.669 198.067C127.786 209.867 130.327 219.924 133.332 228.202C137.206 238.879 141.851 246.598 145.202 251.283C145.832 252.164 147.117 251.501 146.855 250.45C142.039 231.109 143.236 210.863 145.603 199.759C145.699 199.311 146.097 198.998 146.554 198.978C174.623 197.755 187.851 171.061 191.581 160.64L187.732 173.481C187.539 174.122 188.014 174.766 188.683 174.719C199.568 173.962 219.101 164.457 224.518 154.519L219.75 163.267C219.371 163.962 219.926 164.797 220.714 164.719C249.645 161.854 256.35 143.658 256.043 134.74C262.4 174.409 281.51 176.159 293.447 172.026C293.605 171.971 293.771 171.951 293.931 171.997C300.673 173.941 300.733 211.024 299.866 230.823C299.836 231.511 300.494 232.013 301.137 231.769C316.537 225.925 320.55 201.141 317.714 189.031C317.693 188.938 317.684 188.844 317.689 188.749C320.638 125.956 284.731 109.311 266.395 108.84ZM266.395 108.84C270.943 106.643 281.64 102.907 288.039 105.544" stroke="#442F1B" stroke-width="4" stroke-linecap="round"/>
<path d="M269.518 232.241C269.518 239.428 267.622 240.917 265.283 240.917C262.944 240.917 259.637 239.428 259.637 232.241C259.637 225.053 262.944 223.022 265.283 223.022C267.622 223.022 269.518 225.053 269.518 232.241Z" fill="#091220"/>
<path d="M183.411 237.62C184.352 241.858 179.422 243.742 176.823 243.742C174.225 243.742 174 242.041 174 237.62C174 233.199 175.166 228.673 177.764 228.673C180.363 228.673 183.411 233.199 183.411 237.62Z" fill="black"/>
<path d="M272.58 188.213C278.909 191.066 285.178 192.781 290.183 193.935C291.336 194.201 291.172 195.709 289.989 195.709H253.091C252.588 195.709 252.159 195.335 252.128 194.834C251.93 191.554 253.152 189.277 254.963 187.637C259.621 183.421 266.853 185.632 272.58 188.213Z" fill="#442F1B" stroke="#442F1B" stroke-width="4"/>
<path d="M186.665 190.036C178.265 189.952 160.083 203.658 149.464 212.687C148.658 213.372 149.335 214.639 150.355 214.358C166.059 210.038 191.319 202.992 192.352 202.302C193.438 201.578 189.678 194.406 187.436 190.508C187.273 190.225 186.991 190.039 186.665 190.036Z" fill="#442F1B" stroke="#442F1B" stroke-width="3"/>
<path d="M222.142 275.317L222.568 273.426C223.515 269.211 229.545 269.285 230.392 273.522L231.404 278.59" stroke="#775B41" stroke-width="5" stroke-linecap="round"/>
<path d="M154.709 292.717C157.532 298.839 162.237 312.495 179.176 318.617" stroke="#EBB888" stroke-width="4.2"/>
<path d="M288.584 308.455C291.878 305.629 297.577 298.637 299.212 289.637" stroke="#EBB888" stroke-width="4.2"/>
<path d="M144.358 235.737C143.417 228.202 142.946 214.075 144.358 207.482" stroke="#715439" stroke-width="4.2"/>
<path d="M277.518 172.164C281.282 174.048 289.751 174.048 293.516 171.693" stroke="#715439" stroke-width="4.2"/>
<path d="M300.102 197.122C300.572 201.831 300.572 213.604 300.572 216.9" stroke="#715439" stroke-width="4.6"/>
<path d="M264.813 108.12C264.338 107.455 262.994 106.541 260.962 105.244C256.668 102.5 251.866 100.594 246.913 99.3948C243.18 98.4908 238.954 97.4925 233.758 96.8184" stroke="#715439" stroke-width="4.6"/>
<path d="M126.947 198.535C126.791 201.047 128.171 210.12 131.183 220.668" stroke="#715439" stroke-width="4.6"/>
<path d="M317.512 189.588C318.453 192.884 318.547 204.186 317.041 207.953" stroke="#715439" stroke-width="4.6"/>
<path d="M137.067 428.392C148.535 404.82 176.573 357.913 196.978 358.864L214.043 349.747C214.467 349.52 214.99 349.628 215.302 349.993C218.477 353.703 223.764 357.926 229.603 358.686C232.883 359.112 236.336 358.446 239.688 355.985C241.634 354.555 243.546 352.52 245.37 349.742C245.53 349.498 245.783 349.33 246.073 349.301C249.068 348.998 255.352 349.455 259.856 353.516C265.775 358.853 256.927 348.212 294.617 353.482C294.767 353.503 294.912 353.555 295.038 353.64C306.012 361.081 331.118 382.065 345.274 407.593C353.984 423.299 300.596 447.972 245.619 452.826C188.271 457.889 129.192 442.509 137.067 428.392Z" fill="#191B44"/>
<path d="M196.978 358.864C176.573 357.913 148.535 404.82 137.067 428.392C129.192 442.509 188.271 457.889 245.619 452.826C300.596 447.972 353.984 423.299 345.274 407.593C331.118 382.065 306.012 361.081 295.038 353.64C294.912 353.555 294.767 353.503 294.617 353.482C256.927 348.212 265.775 358.853 259.856 353.516M196.978 358.864L214.043 349.747C214.467 349.52 214.99 349.628 215.302 349.993C218.477 353.703 223.764 357.926 229.603 358.686M196.978 358.864C201.608 367.318 207.891 376.68 214.774 383.776M259.856 353.516C255.352 349.455 249.068 348.998 246.073 349.301C245.783 349.33 245.53 349.498 245.37 349.742C243.546 352.52 241.634 354.555 239.688 355.985M259.856 353.516C258.539 360.988 256.995 367.283 255.266 372.532M214.774 383.776L229.603 358.686M214.774 383.776C228.729 398.163 245.152 403.234 255.266 372.532M229.603 358.686C232.883 359.112 236.336 358.446 239.688 355.985M239.688 355.985L255.266 372.532" stroke="#08071D" stroke-width="4.6"/>
</g>
<path d="M318.605 162.882C288.023 139.968 194.013 109.139 142.819 112.889L152.842 88.6732L98.1016 52.7406L270.804 26.1816L382.598 137.104H345.871H327.857L318.605 162.882Z" fill="#191B44"/>
<path d="M152.842 88.6732C156.697 57.4274 312.438 102.734 327.857 137.104M152.842 88.6732L142.819 112.889C194.013 109.139 288.023 139.968 318.605 162.882L327.857 137.104M152.842 88.6732L98.1016 52.7406L270.804 26.1816L382.598 137.104H345.871M327.857 137.104H345.871M345.871 137.104V194.909M345.871 194.909L342.506 214.438M345.871 194.909L337.109 216M345.871 194.909L354.842 216M345.871 194.909L348.674 214.438" stroke="#08071D" stroke-width="3" stroke-linecap="round"/>
</svg>
