<svg width="286" height="288" viewBox="0 0 286 288" fill="none" xmlns="http://www.w3.org/2000/svg">
<ellipse cx="143" cy="144" rx="143" ry="143.5" fill="#F58A5C"/>
<mask id="mask0_99_1702" style="mask-type:alpha" maskUnits="userSpaceOnUse" x="8" y="17" width="271" height="271">
<ellipse cx="143.522" cy="152.349" rx="135.172" ry="135.151" fill="#F58A5C"/>
</mask>
<g mask="url(#mask0_99_1702)">
<path d="M164.229 85.793C168.149 101.471 176.635 107.992 183.335 109.712C187.144 110.69 191.77 113.166 192.303 117.063C193.996 129.44 193.289 140.533 193.674 150.247C196.697 146.572 202.489 142.74 207.199 148.055C212.464 153.994 212.93 164.571 206.645 169.419C203.714 171.68 199.447 172.22 193.468 168.568C193.07 174.503 192.371 179.587 191.54 183.778C190.038 191.356 185.431 197.922 178.871 202.002C171.401 206.647 163.792 209.308 156.409 210.554C154.006 211.021 155.408 221.601 156.409 225.632C155.689 233.08 142.292 231.038 138.987 228.034C138.987 222.328 140.189 216.434 138.987 211.084C125.786 209.744 114.602 204.783 108.077 200.403C103.604 197.4 98.5787 190.242 95.639 176.076C90.5637 180.681 79.8723 185.627 77.7096 168.568C75.5468 151.509 86.8556 155.053 92.7803 158.957C91.2749 147.795 90.3094 136.389 89.8146 127.588C89.7603 126.622 90.4115 125.765 91.3422 125.502C106.028 121.345 118.527 108.171 123.067 101.893L120.063 109.402C126.747 111.407 133.432 107.331 138.096 102.912L142.892 97.3884C141.794 98.9742 140.139 100.976 138.096 102.912C157.32 102.191 163.528 91.199 164.229 85.793Z" fill="#EBB888"/>
<path d="M193.674 150.247C193.289 140.533 193.996 129.44 192.303 117.063C191.77 113.166 187.144 110.69 183.335 109.712C176.635 107.992 168.149 101.471 164.229 85.793C163.528 91.199 157.32 102.191 138.096 102.912L142.892 97.3884C139.288 102.594 129.676 112.285 120.063 109.402L123.067 101.893C118.527 108.171 106.028 121.345 91.3422 125.502C90.4115 125.765 89.7603 126.622 89.8146 127.588C90.3094 136.389 91.2749 147.795 92.7803 158.957M193.674 150.247C196.697 146.572 202.489 142.74 207.199 148.055C212.464 153.994 212.93 164.571 206.645 169.419C203.714 171.68 199.447 172.22 193.468 168.568M193.674 150.247C193.943 157.039 193.831 163.157 193.468 168.568M193.468 168.568C193.07 174.503 192.371 179.587 191.54 183.778C190.038 191.356 185.431 197.922 178.871 202.002C171.401 206.647 163.792 209.308 156.409 210.554M92.7803 158.957C86.8556 155.053 75.5468 151.509 77.7096 168.568C79.8723 185.627 90.5637 180.681 95.639 176.076M92.7803 158.957C93.5781 164.873 94.5276 170.721 95.639 176.076M95.639 176.076C98.5787 190.242 103.604 197.4 108.077 200.403C114.602 204.783 125.786 209.744 138.987 211.084M138.987 211.084C140.189 216.434 138.987 222.328 138.987 228.034C142.292 231.038 155.689 233.08 156.409 225.632C155.408 221.601 154.006 211.021 156.409 210.554M138.987 211.084C144.513 211.644 150.386 211.571 156.409 210.554" stroke="#775B41" stroke-width="4"/>
<path d="M131.133 190.489L132.358 190.563C144.554 191.302 156.735 188.899 167.736 183.584V183.584" stroke="#4C0B0B" stroke-width="4" stroke-linecap="round"/>
<path d="M75.2674 117.276L80.7364 126.486C80.8122 126.613 80.8585 126.757 80.8727 126.904C81.5897 134.395 83.2074 140.782 85.1184 146.042C87.2341 151.867 89.7094 156.311 91.7199 159.345C92.3178 160.247 93.591 159.611 93.3575 158.554C90.7832 146.9 91.4897 134.992 92.8939 128.181C92.9863 127.733 93.3846 127.415 93.8412 127.39C111.567 126.445 119.936 109.564 122.304 102.953L119.987 110.676C119.794 111.317 120.276 111.958 120.942 111.89C127.972 111.17 139.952 105.241 143.331 99.0485L140.605 104.044C140.226 104.739 140.768 105.574 141.555 105.485C159.473 103.452 163.65 92.0545 163.456 86.4344C167.499 111.639 179.622 112.841 187.249 110.244C187.406 110.19 187.574 110.167 187.731 110.224C191.892 111.736 191.981 134.547 191.454 147.202C191.426 147.89 192.084 148.397 192.717 148.126C202.137 144.089 204.597 128.725 202.838 121.109C202.817 121.017 202.809 120.922 202.813 120.827C204.673 80.8224 181.765 70.216 170.065 69.916L163.595 65.5059C163.503 65.4431 163.396 65.3948 163.289 65.3657C89.1664 45.3593 73.6383 91.1771 75.13 116.833C75.1392 116.991 75.1864 117.14 75.2674 117.276Z" fill="#715439"/>
<path d="M170.065 69.916L163.595 65.5059C163.503 65.4431 163.396 65.3948 163.289 65.3657C89.1664 45.3593 73.6383 91.1771 75.13 116.833C75.1392 116.991 75.1864 117.14 75.2674 117.276L80.7364 126.486C80.8122 126.613 80.8585 126.757 80.8727 126.904C81.5897 134.395 83.2074 140.782 85.1184 146.042C87.2341 151.867 89.7094 156.311 91.7199 159.345C92.3178 160.247 93.591 159.611 93.3575 158.554C90.7832 146.9 91.4897 134.992 92.8939 128.181C92.9863 127.733 93.3846 127.415 93.8412 127.39C111.567 126.445 119.936 109.564 122.304 102.953L119.987 110.676C119.794 111.317 120.276 111.958 120.942 111.89C127.972 111.17 139.952 105.241 143.331 99.0485L140.605 104.044C140.226 104.739 140.768 105.574 141.555 105.485C159.473 103.452 163.65 92.0545 163.456 86.4344C167.499 111.639 179.622 112.841 187.249 110.244C187.406 110.19 187.574 110.167 187.731 110.224C191.892 111.736 191.981 134.547 191.454 147.202C191.426 147.89 192.084 148.397 192.717 148.126C202.137 144.089 204.597 128.725 202.838 121.109C202.817 121.017 202.809 120.922 202.813 120.827C204.673 80.8224 181.765 70.216 170.065 69.916ZM170.065 69.916C172.968 68.5144 179.797 66.1318 183.882 67.8136" stroke="#442F1B" stroke-width="4" stroke-linecap="round"/>
<path d="M172.058 148.618C172.058 153.202 170.848 154.152 169.355 154.152C167.862 154.152 165.75 153.202 165.75 148.618C165.75 144.034 167.862 142.739 169.355 142.739C170.848 142.739 172.058 144.034 172.058 148.618Z" fill="#091220"/>
<path d="M117.088 152.049C117.689 154.752 114.542 155.954 112.883 155.954C111.224 155.954 111.081 154.869 111.081 152.049C111.081 149.229 111.825 146.343 113.484 146.343C115.143 146.343 117.088 149.229 117.088 152.049Z" fill="black"/>
<path d="M177.331 121.886C179.063 122.519 180.747 123.032 182.32 123.457C183.462 123.766 183.289 125.319 182.105 125.319H161.889C161.387 125.319 160.954 124.944 160.945 124.442C160.938 124.01 160.971 123.606 161.038 123.228C162.145 117.049 171.434 119.731 177.331 121.886Z" fill="#442F1B" stroke="#442F1B" stroke-width="4"/>
<path d="M118.974 121.702C113.84 121.844 103.393 129.506 96.6015 135.152C95.7883 135.828 96.4607 137.083 97.4802 136.802C107.534 134.032 122.169 129.942 122.796 129.524C123.475 129.072 121.192 124.683 119.752 122.165C119.59 121.882 119.3 121.693 118.974 121.702Z" fill="#442F1B" stroke="#442F1B" stroke-width="3"/>
<path d="M141.815 176.092V176.092C142.482 173.125 146.727 173.176 147.323 176.157L147.727 178.179" stroke="#775B41" stroke-width="5" stroke-linecap="round"/>
<path d="M98.7651 187.188C100.567 191.093 103.571 199.803 114.385 203.707" stroke="#EBB888" stroke-width="4.2"/>
<path d="M184.23 197.225C186.333 195.423 189.971 190.964 191.015 185.224" stroke="#EBB888" stroke-width="4.2"/>
<path d="M92.1567 150.848C91.5559 146.042 91.2555 137.032 92.1566 132.828" stroke="#715439" stroke-width="4.2"/>
<path d="M177.165 110.303C179.568 111.504 184.975 111.504 187.378 110.002" stroke="#715439" stroke-width="4.2"/>
<path d="M191.583 126.22C191.883 129.224 191.883 136.732 191.883 138.834" stroke="#715439" stroke-width="4.6"/>
<path d="M169.055 69.4566C169.006 69.3885 168.943 69.3164 168.866 69.2399C165.263 65.6416 159.883 64.3547 154.91 63.2566C153.217 62.8826 151.35 62.5233 149.229 62.2485" stroke="#715439" stroke-width="4.6"/>
<path d="M81.0428 127.121C80.9427 128.723 81.824 134.509 83.7464 141.237" stroke="#715439" stroke-width="4.6"/>
<path d="M202.697 121.415C203.298 123.517 203.358 130.725 202.397 133.128" stroke="#715439" stroke-width="4.6"/>
<path d="M87.503 273.719C94.8243 258.685 112.723 228.769 125.75 229.376L136.38 223.702C136.804 223.475 137.326 223.584 137.645 223.944C139.689 226.253 142.968 228.793 146.578 229.262C148.671 229.534 150.876 229.109 153.016 227.539C154.225 226.652 155.415 225.398 156.551 223.696C156.713 223.454 156.966 223.285 157.257 223.262C159.227 223.102 163.096 223.447 165.891 225.965C169.665 229.365 164.034 222.598 187.997 225.932C188.147 225.952 188.292 226.004 188.418 226.09C195.458 230.875 211.413 244.225 220.421 260.454C225.982 270.471 191.899 286.207 156.802 289.302C120.191 292.531 82.4762 282.722 87.503 273.719Z" fill="#191B44"/>
<path d="M125.75 229.376C112.723 228.769 94.8243 258.685 87.503 273.719C82.4762 282.722 120.191 292.531 156.802 289.302C191.899 286.207 225.982 270.471 220.421 260.454C211.413 244.225 195.458 230.875 188.418 226.09C188.292 226.004 188.147 225.952 187.997 225.932C164.034 222.598 169.665 229.365 165.891 225.965M125.75 229.376L136.38 223.702C136.804 223.475 137.326 223.584 137.645 223.944C139.689 226.253 142.968 228.793 146.578 229.262M125.75 229.376C128.706 234.767 132.717 240.738 137.111 245.264M165.891 225.965C163.096 223.447 159.227 223.102 157.257 223.262C156.966 223.285 156.713 223.454 156.551 223.696C155.415 225.398 154.225 226.652 153.016 227.539M165.891 225.965C165.05 230.73 164.064 234.745 162.961 238.093M137.111 245.264L146.578 229.262M137.111 245.264C146.02 254.439 156.504 257.674 162.961 238.093M146.578 229.262C148.671 229.534 150.876 229.109 153.016 227.539M153.016 227.539L162.961 238.093" stroke="#08071D" stroke-width="4.6"/>
</g>
<path d="M203.396 104.383C183.872 89.7689 123.857 70.1067 91.1753 72.4981L97.5739 57.054L62.6279 34.1369L172.88 17.1982L244.248 87.9422H220.802H209.302L203.396 104.383Z" fill="#191B44"/>
<path d="M97.5739 57.054C100.035 37.1261 199.458 66.0215 209.302 87.9422M97.5739 57.054L91.1753 72.4981C123.857 70.1067 183.872 89.7689 203.396 104.383L209.302 87.9422M97.5739 57.054L62.6279 34.1369L172.88 17.1982L244.248 87.9422H220.802M209.302 87.9422H220.802M220.802 87.9422V124.809M220.802 124.809L218.654 137.264M220.802 124.809L215.209 138.26M220.802 124.809L226.529 138.26M220.802 124.809L222.592 137.264" stroke="#08071D" stroke-width="3" stroke-linecap="round"/>
</svg>
