<svg width="274" height="274" viewBox="0 0 274 274" fill="none" xmlns="http://www.w3.org/2000/svg">
<circle cx="137" cy="137" r="137" fill="#F58A5C"/>
<mask id="mask0_9_140" style="mask-type:alpha" maskUnits="userSpaceOnUse" x="0" y="0" width="274" height="274">
<circle cx="137" cy="137" r="137" fill="#F58A5C"/>
</mask>
<g mask="url(#mask0_9_140)">
<path d="M158.891 72.458C162.844 88.2721 170.966 93.5574 177.474 94.4742C181.368 95.023 185.889 97.2292 186.426 101.125C188.161 113.714 187.439 124.995 187.83 134.869C190.917 131.115 196.852 127.202 201.645 132.768C206.823 138.781 207.307 149.245 201.108 154.2C198.133 156.577 193.771 157.197 187.622 153.44C187.214 159.531 186.492 164.738 185.636 169.016C184.121 176.591 179.512 183.152 172.962 187.247C165.348 192.008 157.589 194.731 150.062 196.001C147.626 196.474 149.047 207.199 150.062 211.285C149.331 218.835 135.753 216.765 132.404 213.72C132.404 207.936 133.622 201.961 132.404 196.538C119.024 195.18 107.688 190.151 101.076 185.711C96.5415 182.667 91.4487 175.411 88.4692 161.051C83.3252 165.719 72.4892 170.733 70.2972 153.44C68.1052 136.148 79.5669 139.74 85.5718 143.698C84.0447 132.373 83.0658 120.801 82.5647 111.877C82.5105 110.911 83.1616 110.054 84.0925 109.791C98.9862 105.584 111.665 92.2206 116.268 85.8536L113.224 93.4647C122.966 96.3873 132.708 86.5639 136.362 81.2869L132.404 89.8113C151.888 89.0807 158.18 77.938 158.891 72.458Z" fill="#EBB888"/>
<path d="M187.83 134.869C187.439 124.995 188.161 113.714 186.426 101.125C185.889 97.2292 181.368 95.023 177.474 94.4742C170.966 93.5574 162.844 88.2721 158.891 72.458C158.18 77.938 151.888 89.0807 132.404 89.8113L136.362 81.2869C132.708 86.5639 122.966 96.3873 113.224 93.4647L116.268 85.8536C111.665 92.2206 98.9862 105.584 84.0925 109.791C83.1616 110.054 82.5105 110.911 82.5647 111.877C83.0658 120.801 84.0447 132.373 85.5718 143.698M187.83 134.869C190.917 131.115 196.852 127.202 201.645 132.768C206.823 138.781 207.307 149.245 201.108 154.2C198.133 156.577 193.771 157.197 187.622 153.44M187.83 134.869C188.103 141.754 187.989 147.955 187.622 153.44M187.622 153.44C187.214 159.531 186.492 164.738 185.636 169.016C184.121 176.591 179.512 183.152 172.962 187.247C165.348 192.008 157.589 194.731 150.062 196.001M85.5718 143.698C79.5669 139.74 68.1052 136.148 70.2972 153.44C72.4892 170.733 83.3252 165.719 88.4692 161.051M85.5718 143.698C86.3804 149.695 87.3427 155.622 88.4692 161.051M88.4692 161.051C91.4487 175.411 96.5415 182.667 101.076 185.711C107.688 190.151 119.024 195.18 132.404 196.538M132.404 196.538C133.622 201.961 132.404 207.936 132.404 213.72C135.753 216.765 149.331 218.835 150.062 211.285C149.047 207.199 147.626 196.474 150.062 196.001M132.404 196.538C138.004 197.106 143.957 197.031 150.062 196.001" stroke="#775B41" stroke-width="4"/>
<path d="M124.443 175.662L125.684 175.737C138.045 176.486 150.391 174.05 161.541 168.662V168.662" stroke="#4C0B0B" stroke-width="4" stroke-linecap="round"/>
<path d="M67.8206 101.444L73.3669 110.786C73.4426 110.913 73.489 111.056 73.5031 111.204C74.2297 118.798 75.8694 125.274 77.8065 130.607C79.9635 136.546 82.489 141.069 84.5331 144.145C85.1322 145.047 86.4056 144.41 86.1711 143.353C83.5442 131.514 84.2622 119.405 85.6894 112.491C85.7818 112.043 86.1802 111.725 86.6369 111.7C104.61 110.749 113.094 93.6306 115.495 86.928L113.141 94.774C112.949 95.4156 113.431 96.0549 114.095 95.9619C119.457 95.2101 127.152 90.3375 132.623 86.2686C133.51 85.6083 134.784 86.6777 134.254 87.649L134.032 88.0563C133.653 88.7516 134.194 89.5865 134.981 89.4976C153.163 87.4444 157.401 75.8831 157.204 70.1835C161.302 95.7363 173.592 96.9521 181.321 94.3176C181.479 94.2638 181.647 94.2411 181.804 94.2977C186.026 95.8206 186.115 118.974 185.58 131.802C185.552 132.489 186.21 132.997 186.843 132.727C196.406 128.645 198.903 113.055 197.118 105.331C197.097 105.238 197.089 105.143 197.093 105.049C198.979 64.4951 175.761 53.7432 163.902 53.4391L157.343 48.9674C157.251 48.9046 157.144 48.8563 157.037 48.8272C81.9065 28.5446 66.1698 74.9947 67.6832 101.001C67.6924 101.159 67.7396 101.308 67.8206 101.444Z" fill="#715439"/>
<path d="M163.902 53.4391L157.343 48.9674C157.251 48.9046 157.144 48.8563 157.037 48.8272C81.9065 28.5446 66.1698 74.9947 67.6832 101.001C67.6924 101.159 67.7396 101.308 67.8206 101.444L73.3669 110.786C73.4426 110.913 73.489 111.056 73.5031 111.204C74.2297 118.798 75.8694 125.274 77.8065 130.607C79.9635 136.546 82.489 141.069 84.5331 144.145C85.1322 145.047 86.4056 144.41 86.1711 143.353C83.5442 131.514 84.2622 119.405 85.6894 112.491C85.7818 112.043 86.1802 111.725 86.6369 111.7C104.61 110.749 113.094 93.6306 115.495 86.928L113.141 94.774C112.949 95.4156 113.431 96.0549 114.095 95.9619C119.457 95.2101 127.152 90.3375 132.623 86.2686C133.51 85.6083 134.784 86.6777 134.254 87.649L134.032 88.0563C133.653 88.7516 134.194 89.5865 134.981 89.4976C153.163 87.4443 157.401 75.8831 157.204 70.1835C161.302 95.7363 173.592 96.9521 181.321 94.3176C181.479 94.2638 181.647 94.2411 181.804 94.2977C186.026 95.8206 186.115 118.974 185.58 131.802C185.552 132.489 186.21 132.997 186.843 132.727C196.406 128.645 198.903 113.055 197.118 105.331C197.097 105.238 197.089 105.143 197.093 105.049C198.979 64.4951 175.761 53.7432 163.902 53.4391ZM163.902 53.4391C166.845 52.0184 173.766 49.6031 177.906 51.308" stroke="#442F1B" stroke-width="4" stroke-linecap="round"/>
<path d="M165.923 133.218C165.923 137.865 164.696 138.827 163.183 138.827C161.669 138.827 159.529 137.865 159.529 133.218C159.529 128.571 161.669 127.258 163.183 127.258C164.696 127.258 165.923 128.571 165.923 133.218Z" fill="#091220"/>
<path d="M110.209 136.696C110.818 139.436 107.628 140.653 105.947 140.653C104.265 140.653 104.12 139.554 104.12 136.696C104.12 133.837 104.874 130.911 106.556 130.911C108.237 130.911 110.209 133.837 110.209 136.696Z" fill="black"/>
<path d="M171.142 106.074C172.982 106.751 174.77 107.295 176.433 107.742C177.575 108.049 177.403 109.6 176.22 109.6H155.604C155.102 109.6 154.669 109.225 154.659 108.723C154.65 108.23 154.692 107.773 154.778 107.35C156.028 101.197 165.25 103.904 171.142 106.074Z" fill="#442F1B" stroke="#442F1B" stroke-width="4"/>
<path d="M112.127 105.933C106.915 106.07 96.2848 113.876 89.3994 119.605C88.5865 120.281 89.2603 121.536 90.2798 121.255C100.472 118.448 115.357 114.287 115.994 113.863C116.682 113.404 114.364 108.948 112.905 106.397C112.743 106.114 112.453 105.925 112.127 105.933Z" fill="#442F1B" stroke="#442F1B" stroke-width="3"/>
<path d="M135.27 161.067V161.067C135.946 158.061 140.248 158.112 140.853 161.134L141.262 163.183" stroke="#775B41" stroke-width="5" stroke-linecap="round"/>
<path d="M91.6382 172.316C93.4649 176.274 96.5093 185.103 107.469 189.06" stroke="#EBB888" stroke-width="4.2"/>
<path d="M179.623 182.058C181.754 180.231 184.189 176.578 185.407 170.185" stroke="#EBB888" stroke-width="4.2"/>
<path d="M84.9402 135.478C84.3313 130.607 84.0268 121.474 84.9402 117.211" stroke="#715439" stroke-width="4.2"/>
<path d="M171.098 94.3782C173.534 95.596 179.014 95.596 181.449 94.0737" stroke="#715439" stroke-width="4.2"/>
<path d="M185.711 110.514C186.016 113.558 186.016 121.169 186.016 123.3" stroke="#715439" stroke-width="4.6"/>
<path d="M162.878 52.9737C162.321 52.1934 159.915 50.8865 156.36 48.5265C156.242 48.4483 156.108 48.3953 155.969 48.371C152.375 47.7453 148.481 46.4054 142.785 45.667" stroke="#715439" stroke-width="4.6"/>
<path d="M73.6757 111.427C73.5742 113.05 74.4675 118.916 76.4159 125.736" stroke="#715439" stroke-width="4.6"/>
<path d="M196.976 105.643C197.585 107.774 197.646 115.08 196.671 117.516" stroke="#715439" stroke-width="4.6"/>
<path d="M80.2235 260.031C87.6438 244.791 105.785 214.466 118.988 215.08L129.772 209.323C130.195 209.097 130.718 209.206 131.036 209.566C133.107 211.908 136.434 214.489 140.098 214.965C142.219 215.241 144.454 214.81 146.622 213.219C147.85 212.318 149.056 211.045 150.209 209.318C150.371 209.076 150.624 208.907 150.915 208.883C152.91 208.72 156.836 209.068 159.672 211.623C163.497 215.069 157.79 208.209 182.08 211.59C182.23 211.61 182.376 211.662 182.501 211.748C189.635 216.597 205.808 230.131 214.94 246.584C220.575 256.738 186.032 272.689 150.46 275.827C113.354 279.1 75.1287 269.157 80.2235 260.031Z" fill="#D9D9D9"/>
<path d="M118.988 215.08C105.785 214.466 87.6438 244.791 80.2235 260.031C75.1287 269.157 113.354 279.1 150.46 275.827C186.032 272.689 220.575 256.738 214.94 246.584C205.808 230.131 189.635 216.597 182.501 211.748C182.376 211.662 182.23 211.61 182.08 211.59C157.79 208.209 163.497 215.069 159.672 211.623M118.988 215.08L129.772 209.323C130.195 209.097 130.718 209.206 131.036 209.566C133.107 211.908 136.434 214.489 140.098 214.965M118.988 215.08C121.983 220.546 126.049 226.598 130.502 231.186M159.672 211.623C156.836 209.068 152.91 208.72 150.915 208.883C150.624 208.907 150.371 209.076 150.209 209.318C149.056 211.045 147.85 212.318 146.622 213.219M159.672 211.623C158.82 216.454 157.82 220.523 156.702 223.917M130.502 231.186L140.098 214.965M130.502 231.186C139.532 240.487 150.158 243.766 156.702 223.917M140.098 214.965C142.219 215.241 144.454 214.81 146.622 213.219M146.622 213.219L156.702 223.917" stroke="#9F9F9F" stroke-width="4.6"/>
</g>
</svg>
