<svg width="448" height="450" viewBox="0 0 448 450" fill="none" xmlns="http://www.w3.org/2000/svg">
<rect width="448" height="450" rx="224" fill="#458BF3"/>
<mask id="mask0_220_3219" style="mask-type:alpha" maskUnits="userSpaceOnUse" x="0" y="0" width="448" height="450">
<rect width="448" height="450" rx="224" fill="#D9D9D9"/>
</mask>
<g mask="url(#mask0_220_3219)">
<path d="M127.733 135.693C176.683 64.5464 224.415 86.8345 242.163 106.872C289.047 62.4054 357.387 157.102 320.833 232.86C314.476 232.201 308.036 239.722 305.61 243.565C305.347 248.492 306.253 244.394 305.61 250.456L316.38 255.383C310.022 296.885 325.601 322.891 333.547 323.44C316.065 338.262 299.377 331.674 299.377 333.321C299.377 334.639 306.264 340.033 309.708 342.566C309.708 345.35 299.113 347.993 293.815 348.967V354.731C286.186 359.342 257.866 352.81 246.073 348.967V339.142C235.111 341.628 226.301 342.554 215.144 342.566V348.967L161.903 359.672C161.638 355.28 160.473 346.991 157.93 348.967C155.387 350.943 142.037 353.633 135.679 354.731V334.968C131.229 342.214 114.224 340.732 106.277 339.085C127.256 331.18 125.614 283.344 122.17 268.522L135.679 262.504C131.176 252.623 121.535 231.213 118.992 224.626C116.449 218.038 120.051 197.177 122.17 187.57C117.72 170.442 124.025 145.849 127.733 135.693Z" fill="#413636"/>
<path d="M135.679 262.504C131.176 252.623 121.535 231.213 118.992 224.626C116.449 218.038 120.051 197.177 122.17 187.57C117.72 170.442 124.025 145.849 127.733 135.693C176.683 64.5464 224.415 86.8345 242.163 106.872C289.047 62.4054 357.387 157.102 320.833 232.86C314.476 232.201 308.036 239.722 305.61 243.565M135.679 262.504L122.17 268.522C125.614 283.344 127.256 331.18 106.277 339.085C114.224 340.732 131.229 342.214 135.679 334.968V354.731C142.037 353.633 155.387 350.943 157.93 348.967C160.473 346.991 161.638 355.28 161.903 359.672L215.144 348.967V342.566C226.301 342.554 235.111 341.628 246.073 339.142V348.967C257.866 352.81 286.186 359.342 293.815 354.731V348.967C299.113 347.993 309.708 345.35 309.708 342.566C306.264 340.033 299.377 334.639 299.377 333.321C299.377 331.674 316.065 338.262 333.547 323.44C325.601 322.891 310.022 296.885 316.38 255.383L305.61 250.456C306.253 244.394 305.347 248.492 305.61 243.565M135.679 262.504L134.09 208.091M305.61 243.565C306.679 236.371 306.056 225.153 305.61 220.443M232.627 132.334C231.832 130.687 229.289 128.381 225.475 132.334C220.707 137.275 200.046 192.446 134.09 201.504M312.886 208.091C300.967 204.249 276.968 192.116 276.333 174.33C263.618 166.095 254.877 135.693 242.163 140.568" stroke="#0A0000" stroke-width="3"/>
<path d="M234.815 120.842L243.289 129.026C253.415 124.923 262.761 157.747 274.444 161.85C275.691 182.2 294.695 193.852 304.042 197.135C304.159 210.606 303.892 222.602 303.346 233.24C311.626 225.308 327.72 215.187 325.85 238.164C323.981 261.14 309.206 256.49 302.053 251.293C298.918 284.656 288.854 303.81 283.012 309.554C274.388 318.034 269.715 320.894 248.742 325.311V350.583C248.742 360.43 223.761 372.739 215.25 350.583V327.607C208.572 327.768 201.5 328.883 194.22 327.607C156.778 321.043 150.649 302.169 141.201 266.064C133.412 275.09 108.799 284.609 110.046 253.755C111.292 222.901 128.307 232.42 137.02 242.267V194.673C164.775 190.612 201.207 180.118 227.681 121.805C228.172 120.724 229.256 120 230.443 120H232.731C233.508 120 234.256 120.302 234.815 120.842Z" fill="#E4BEA2"/>
<path d="M248.742 325.311C269.715 320.894 274.388 318.034 283.012 309.554C288.854 303.81 298.918 284.656 302.053 251.293M248.742 325.311V350.583C248.742 360.43 223.761 372.739 215.25 350.583V327.607M248.742 325.311C237.837 327.607 227.678 327.307 215.25 327.607M215.25 327.607C208.572 327.768 201.5 328.883 194.22 327.607C156.778 321.043 150.649 302.169 141.201 266.064M137.02 242.267V194.673C164.775 190.612 201.207 180.118 227.681 121.805C228.172 120.724 229.256 120 230.443 120H232.731C233.508 120 234.256 120.302 234.815 120.842L243.289 129.026C253.415 124.923 262.761 157.747 274.444 161.85C275.691 182.2 294.695 193.852 304.042 197.135C304.159 210.606 303.892 222.602 303.346 233.24M137.02 242.267L138.864 251.293C138.618 255.747 140.477 260.276 141.201 266.064M137.02 242.267C128.307 232.42 111.292 222.901 110.046 253.755C108.799 284.609 133.412 275.09 141.201 266.064M303.346 233.24C311.626 225.308 327.72 215.187 325.85 238.164C323.981 261.14 309.206 256.49 302.053 251.293M303.346 233.24C303.011 239.758 302.572 245.767 302.053 251.293" stroke="#89594B" stroke-width="3"/>
<path d="M131.864 120.703C179.524 61.8925 224.721 82.9044 242.068 101.89C290.302 57.547 361.344 150.274 323.738 225.822C317.198 225.165 303.984 230.749 303 241.424L303 219.317L303 198.58L309.799 199.76C294.986 195.756 276.049 183.941 275.504 169.161C262.424 160.949 255.149 130.631 242.068 135.493C237.556 131.551 233.648 128.376 232.258 127.281C231.441 125.639 228.824 123.34 224.9 127.281C219.995 132.208 206.09 189.752 137.5 195.5V206.5L137.5 241.424C131.026 238.848 118.623 235.676 115.353 219.317C112.737 212.748 116.443 191.945 118.623 182.365C115.367 170.216 117.708 154.301 120.704 142.479C122.727 134.495 126.679 127.101 131.864 120.703Z" fill="#413636"/>
<path d="M242.068 101.89C224.721 82.9044 179.524 61.8925 131.864 120.703C126.679 127.101 122.727 134.495 120.704 142.479C117.708 154.301 115.367 170.216 118.623 182.365C116.443 191.945 112.737 212.748 115.353 219.317C118.623 235.676 131.026 238.848 137.5 241.424L137.5 206.5V195.5C206.09 189.752 219.995 132.208 224.9 127.281C228.824 123.34 231.441 125.639 232.258 127.281C233.648 128.376 237.556 131.551 242.068 135.493C255.149 130.631 262.424 160.949 275.504 169.161C276.158 186.898 303.3 200.365 318.015 201.187L303 198.58L303 219.317C303 224.529 303 233.212 303 241.424C303.984 230.749 317.198 225.165 323.738 225.822C361.344 150.274 290.302 57.547 242.068 101.89Z" stroke="#0A0000" stroke-width="3"/>
<path d="M268.147 190.226C245.91 198.109 241.441 189.131 241.986 183.656C267.114 178.608 279.168 188.814 282.496 195.206C282.551 195.312 282.403 195.397 282.325 195.307C278.286 190.653 271.273 189.964 268.147 190.226Z" fill="#413636"/>
<path d="M170.862 199.544C191.791 200.858 195.933 191.594 195.388 187.762C170.997 183.934 151.58 205.09 149.065 207.97C148.995 208.05 149.083 208.158 149.18 208.115C151.783 206.941 166.64 200.293 170.862 199.544Z" fill="#413636"/>
<path d="M268.147 190.226C245.91 198.109 241.441 189.131 241.986 183.656C267.114 178.608 279.168 188.814 282.496 195.206C282.551 195.312 282.403 195.397 282.325 195.307C278.286 190.653 271.273 189.964 268.147 190.226Z" stroke="#0A0000" stroke-width="3"/>
<path d="M170.862 199.544C191.791 200.858 195.933 191.594 195.388 187.762C170.997 183.934 151.58 205.09 149.065 207.97C148.995 208.05 149.083 208.158 149.18 208.115C151.783 206.941 166.64 200.293 170.862 199.544Z" stroke="#0A0000" stroke-width="3"/>
<path d="M287.766 252.92C291.036 270.986 255.066 296.442 228.905 262.774C225.761 260.932 217.178 258.382 207.222 262.273C206.483 262.561 206.029 263.294 205.948 264.084C203.867 284.51 153.457 293.129 142.248 252.92" stroke="#0B132E" stroke-width="3" stroke-linecap="round"/>
<path d="M215.824 275.114C218.277 272.651 224.653 269.859 230.54 278.399" stroke="#89594B" stroke-width="3" stroke-linecap="round"/>
<path d="M210.92 307.117C221.82 307.391 245.583 305.475 253.431 295.621" stroke="#541F18" stroke-width="3" stroke-linecap="round"/>
<path d="M255.066 231.57C255.066 238.139 252.87 239.782 250.161 239.782C247.452 239.782 245.256 238.139 245.256 231.57C245.256 225.001 247.452 223.358 250.161 223.358C252.87 223.358 255.066 223.358 255.066 231.57Z" fill="#2A2424"/>
<path d="M184.759 235.062C184.759 238.957 183.12 240.036 181.736 240.254C180.589 240.435 179.4 240.782 178.33 241.237C176.479 242.025 174.949 240.382 174.949 235.062C174.949 228.326 177.145 226.643 179.854 226.643C182.563 226.643 184.759 226.643 184.759 235.062Z" fill="#2A2424"/>
<path d="M141 262.001C145.5 286.501 155 305.001 163 312.501M295.124 286.588C291.036 298.906 287.766 303.833 283.679 308.76" stroke="#E4BEA2" stroke-width="5"/>
<path d="M232.175 126.46L237.898 131.387L241.883 135.39C241.944 135.451 242.038 135.467 242.115 135.428L245.256 133.851M240.35 104.288C245.256 98.5403 250.978 95.2556 256.701 93.6133M314.745 262.774C313.927 278.376 313.927 287.409 317.197 299.726M124.263 304.653V282.482H125.898L124.263 277.555M174.949 356.387L208.467 349.818M306.569 202.007V215.967M332.73 166.697C333.547 173.267 334.365 188.869 332.73 191.332M117.723 189.69L118.54 182.299L117.723 174.088" stroke="#413636" stroke-width="3.7"/>
<path d="M303.841 445.653C235.823 479.814 184.215 460.161 161.869 442.643C165.559 401.285 177.601 374.433 193.456 358.884C199.131 353.318 208.057 349.816 214.5 347C219 368 245.256 367.062 247.709 348.996C258.482 351.691 263.241 352.281 272.234 356.387C292.672 379.38 303.841 408.12 303.841 445.653Z" fill="#883A2F"/>
<path d="M247.709 348.996C247.709 369.135 248.526 414.887 238.716 458.245M247.709 348.996C245.256 367.062 219 368 214.5 347M247.709 348.996C258.482 351.691 263.241 352.281 272.234 356.387M238.716 458.245C229.996 432.942 215.155 375.76 214.5 347M238.716 458.245C217.787 443.136 212.01 427.862 211.738 422.114C190.155 429.34 190.557 382.971 193.456 358.884M238.716 458.245C246.074 449.76 261.279 430.654 263.241 422.114C265.694 411.439 280.686 432.755 272.234 356.387M214.5 347C208.057 349.816 199.131 353.318 193.456 358.884M193.456 358.884C177.601 374.433 165.559 401.285 161.869 442.643C184.215 460.161 235.823 479.814 303.841 445.653C303.841 408.12 292.672 379.38 272.234 356.387M267.329 436.895H292.672" stroke="#591919" stroke-width="3" stroke-linecap="round"/>
</g>
</svg>
