<svg width="448" height="450" viewBox="0 0 448 450" fill="none" xmlns="http://www.w3.org/2000/svg">
<ellipse cx="224" cy="225" rx="224" ry="225" fill="#F58A5C"/>
<mask id="mask0_224_3184" style="mask-type:alpha" maskUnits="userSpaceOnUse" x="0" y="0" width="448" height="450">
<ellipse cx="224" cy="225" rx="224" ry="225" fill="#F58A5C"/>
</mask>
<g mask="url(#mask0_224_3184)">
<path d="M259.789 119C267.297 149.165 283.999 156.004 295.08 155.369C299.013 155.144 303.416 157.278 304.064 161.164C307.843 183.828 306.416 204.007 307.106 221.5C313.066 214.22 325.519 206.574 333.725 224.631C336.994 231.825 337.563 240.398 333.696 247.289C329.307 255.111 320.939 260.699 306.766 252C305.845 265.803 303.947 276.844 301.845 284.925C299.904 292.392 295.243 298.8 288.998 303.33C274.586 313.784 259.712 319.465 245.353 321.899C241.371 322.677 243.694 340.29 245.353 347C244.159 359.4 221.958 356 216.482 351C216.482 341.5 218.473 331.687 216.482 322.781C194.605 320.551 176.071 312.292 165.26 305C157.846 300 149.519 288.083 144.647 264.5C136.237 272.167 118.52 280.4 114.936 252C111.352 223.6 130.092 229.5 139.91 236C137.352 216.943 135.734 197.46 134.934 182.664C134.882 181.699 135.531 180.843 136.465 180.595C161.259 174.022 182.467 151.603 190.1 141L185.122 153.5C201.051 158.3 216.98 142.167 222.953 133.5L216.482 147.5C248.34 146.3 258.627 128 259.789 119Z" fill="#EBB888"/>
<path d="M307.106 221.5C306.416 204.007 307.843 183.828 304.064 161.164C303.416 157.278 299.013 155.144 295.08 155.369C283.999 156.004 267.297 149.165 259.789 119C258.627 128 248.34 146.3 216.482 147.5L222.953 133.5C216.98 142.167 201.051 158.3 185.122 153.5L190.1 141C182.467 151.603 161.259 174.022 136.465 180.595C135.531 180.843 134.882 181.699 134.934 182.664C135.734 197.46 137.352 216.943 139.91 236M307.106 221.5C313.066 214.22 325.519 206.574 333.725 224.631C336.994 231.825 337.563 240.398 333.696 247.289C329.307 255.111 320.939 260.699 306.766 252M307.106 221.5C307.552 232.807 307.367 242.992 306.766 252M306.766 252C305.845 265.803 303.947 276.844 301.845 284.925C299.904 292.392 295.243 298.8 288.998 303.33C274.586 313.784 259.712 319.465 245.353 321.899M139.91 236C130.092 229.5 111.352 223.6 114.936 252C118.52 280.4 136.237 272.167 144.647 264.5M139.91 236C141.232 245.849 142.806 255.584 144.647 264.5M144.647 264.5C149.519 288.083 157.846 300 165.26 305C176.071 312.292 194.605 320.551 216.482 322.781M216.482 322.781C218.473 331.687 216.482 341.5 216.482 351C221.958 356 244.159 359.4 245.353 347C243.694 340.29 241.371 322.677 245.353 321.899M216.482 322.781C225.638 323.714 235.371 323.591 245.353 321.899" stroke="#775B41" stroke-width="4"/>
<path d="M203.467 288.493L210.947 288.949C227.582 289.961 244.201 286.668 259.203 279.387L264.124 276.998" stroke="#4C0B0B" stroke-width="4" stroke-linecap="round"/>
<path d="M110.807 166.47L120.028 182.07C120.103 182.198 120.149 182.341 120.163 182.488C121.344 195.023 124.034 205.706 127.213 214.499C131.375 226.009 136.376 234.281 139.932 239.232C140.564 240.111 141.852 239.447 141.589 238.397C136.407 217.751 137.684 196.084 140.206 184.251C140.301 183.804 140.7 183.491 141.157 183.472C170.882 182.2 184.888 153.833 188.836 142.763L184.74 156.477C184.548 157.119 185.025 157.761 185.692 157.7C195.377 156.812 210.327 146.806 219.542 139.618C220.414 138.937 221.663 139.979 221.135 140.951L218.581 145.653C218.204 146.348 218.761 147.182 219.548 147.105C250.246 144.097 257.357 124.743 257.031 115.263C263.759 157.397 283.987 159.242 296.615 154.848C296.773 154.792 296.939 154.772 297.101 154.818C304.256 156.84 304.31 196.355 303.389 217.368C303.358 218.056 304.018 218.557 304.662 218.314C321.02 212.161 325.281 185.774 322.272 172.899C322.251 172.807 322.243 172.712 322.247 172.618C325.371 105.938 287.382 88.2631 267.982 87.7634L257.171 80.359C257.078 80.2958 256.971 80.2472 256.863 80.2179C133.785 46.7947 108.125 123.335 110.67 166.029C110.68 166.186 110.727 166.334 110.807 166.47Z" fill="#715439"/>
<path d="M267.982 87.7634L257.171 80.359C257.078 80.2958 256.971 80.2472 256.863 80.2179C133.785 46.7947 108.125 123.335 110.67 166.029C110.68 166.186 110.727 166.334 110.807 166.47L120.028 182.07C120.103 182.198 120.149 182.341 120.163 182.488C121.344 195.023 124.034 205.706 127.213 214.499C131.375 226.009 136.376 234.281 139.932 239.232C140.564 240.111 141.852 239.447 141.589 238.397C136.407 217.751 137.684 196.084 140.206 184.251C140.301 183.804 140.7 183.491 141.157 183.472C170.882 182.2 184.888 153.833 188.836 142.763L184.74 156.477C184.548 157.119 185.025 157.761 185.692 157.7C195.377 156.812 210.327 146.806 219.542 139.618C220.414 138.937 221.663 139.979 221.135 140.951L218.581 145.653C218.204 146.348 218.761 147.182 219.548 147.105C250.246 144.097 257.357 124.743 257.031 115.263C263.759 157.397 283.987 159.242 296.615 154.848C296.773 154.792 296.939 154.772 297.101 154.818C304.256 156.84 304.31 196.355 303.389 217.368C303.358 218.056 304.018 218.557 304.662 218.314C321.02 212.161 325.281 185.774 322.272 172.899C322.251 172.807 322.243 172.712 322.247 172.618C325.371 105.938 287.382 88.2631 267.982 87.7634ZM267.982 87.7634C272.794 85.4301 284.11 81.4634 290.88 84.2634" stroke="#442F1B" stroke-width="4" stroke-linecap="round"/>
<path d="M271.285 218.787C271.285 226.418 269.28 227.999 266.805 227.999C264.331 227.999 260.832 226.418 260.832 218.787C260.832 211.155 264.331 208.999 266.805 208.999C269.28 208.999 271.285 211.155 271.285 218.787Z" fill="#091220"/>
<path d="M180.192 224.499C181.187 228.999 175.972 230.999 173.223 230.999C170.474 230.999 170.236 229.193 170.236 224.499C170.236 219.805 171.469 214.999 174.219 214.999C176.968 214.999 180.192 219.805 180.192 224.499Z" fill="black"/>
<path d="M274.028 171.812C281.105 175.077 288.145 176.975 293.649 178.23C294.802 178.493 294.637 179.999 293.455 179.999H253.857C253.354 179.999 252.925 179.625 252.893 179.124C252.651 175.366 254.151 172.842 256.302 171.07C261.167 167.063 268.304 169.173 274.028 171.812Z" fill="#442F1B" stroke="#442F1B" stroke-width="4"/>
<path d="M183.662 173.973C174.737 173.851 155.296 188.598 144.079 198.194C143.276 198.881 143.952 200.149 144.97 199.867C161.565 195.287 188.551 187.733 189.649 186.998C190.801 186.227 186.804 178.582 184.434 174.448C184.271 174.165 183.989 173.978 183.662 173.973Z" fill="#442F1B" stroke="#442F1B" stroke-width="3"/>
<path d="M221.168 264.525L221.86 261.432C222.805 257.213 228.835 257.297 229.68 261.541L230.966 267.999" stroke="#775B41" stroke-width="5" stroke-linecap="round"/>
<path d="M149.828 282.999C152.815 289.499 157.793 303.999 175.713 310.499" stroke="#EBB888" stroke-width="4.2"/>
<path d="M293.686 298.999C297.17 295.999 301.152 289.999 303.143 279.499" stroke="#EBB888" stroke-width="4.2"/>
<path d="M138.878 222.499C137.882 214.499 137.385 199.499 138.878 192.499" stroke="#715439" stroke-width="4.2"/>
<path d="M279.75 154.999C283.732 156.999 292.692 156.999 296.674 154.499" stroke="#715439" stroke-width="4.2"/>
<path d="M303.643 181.498C304.14 186.498 304.14 198.998 304.14 202.498" stroke="#715439" stroke-width="4.6"/>
<path d="M266.308 87C265.391 85.7102 261.412 83.5443 255.538 79.6206C255.42 79.5418 255.285 79.4881 255.145 79.464C249.232 78.4467 242.839 76.2218 233.455 75" stroke="#715439" stroke-width="4.6"/>
<path d="M120.462 182.999C120.296 185.666 121.756 195.299 124.942 206.499" stroke="#715439" stroke-width="4.6"/>
<path d="M322.058 173.498C323.054 176.998 323.153 188.998 321.561 192.998" stroke="#715439" stroke-width="4.6"/>
<path d="M131.166 427.056C143.299 402.028 172.96 352.223 194.548 353.233L212.641 343.53C213.066 343.303 213.59 343.41 213.902 343.778C217.257 347.726 222.866 352.235 229.062 353.044C232.531 353.496 236.185 352.789 239.731 350.176C241.795 348.654 243.823 346.486 245.757 343.524C245.916 343.28 246.169 343.112 246.46 343.082C249.618 342.755 256.289 343.231 261.067 347.554C267.33 353.222 257.966 341.92 297.854 347.521C298.005 347.542 298.15 347.594 298.276 347.679C309.88 355.573 336.451 377.859 351.432 404.972C360.647 421.649 304.167 447.845 246.006 452.999C185.336 458.375 122.836 442.045 131.166 427.056Z" fill="#D9D9D9"/>
<path d="M194.548 353.233C172.96 352.223 143.299 402.028 131.166 427.056C122.836 442.045 185.336 458.375 246.006 452.999C304.167 447.845 360.647 421.649 351.432 404.972C336.451 377.859 309.88 355.573 298.276 347.679C298.15 347.594 298.005 347.542 297.854 347.521C257.966 341.92 267.33 353.222 261.067 347.554M194.548 353.233L212.641 343.53C213.066 343.303 213.59 343.41 213.902 343.778C217.257 347.726 222.866 352.235 229.062 353.044M194.548 353.233C199.445 362.209 206.092 372.149 213.374 379.684M261.067 347.554C256.289 343.231 249.618 342.755 246.46 343.082C246.169 343.112 245.916 343.28 245.757 343.524C243.823 346.486 241.795 348.654 239.731 350.176M261.067 347.554C259.674 355.488 258.04 362.172 256.211 367.745M213.374 379.684L229.062 353.044M213.374 379.684C228.138 394.959 245.512 400.344 256.211 367.745M229.062 353.044C232.531 353.496 236.185 352.789 239.731 350.176M239.731 350.176L256.211 367.745" stroke="#9F9F9F" stroke-width="4.6"/>
</g>
</svg>
